<svg width="12" height="12" viewBox="0 0 12 12" fill="none" xmlns="http://www.w3.org/2000/svg">
<path fill-rule="evenodd" clip-rule="evenodd" d="M10.8765 0.481513C10.2345 -0.160503 9.19354 -0.160506 8.55151 0.481513L0.793194 8.23984C0.563693 8.46934 0.407256 8.76164 0.343606 9.07986L0.0218928 10.6885C-0.131485 11.4553 0.544655 12.1315 1.31155 11.9781L2.9201 11.6564C3.23837 11.5928 3.53067 11.4363 3.76017 11.2068L11.5185 3.44848C12.1605 2.80647 12.1605 1.76555 11.5185 1.12353L10.8765 0.481513ZM9.32648 1.2565C9.54053 1.04249 9.88747 1.04249 10.1015 1.2565L10.7435 1.89852C10.9575 2.11252 10.9575 2.45949 10.7435 2.6735L9.27946 4.13752L7.86251 2.72052L9.32648 1.2565ZM7.08747 3.4955L1.56818 9.01482C1.49168 9.09132 1.43954 9.18875 1.41832 9.29484L1.0966 10.9034L2.70516 10.5816C2.81125 10.5604 2.90868 10.5083 2.98519 10.4318L8.50449 4.9125L7.08747 3.4955Z" fill="white"/>
</svg>
