<svg width="22" height="24" viewBox="0 0 22 24" fill="none" xmlns="http://www.w3.org/2000/svg">
<path d="M0.397245 13.3971C0.397245 19.2435 5.15365 24 11.0001 24C16.8465 24 21.603 19.2435 21.603 13.3971C21.603 13.0498 21.3214 12.7682 20.9742 12.7682C20.6269 12.7682 20.3453 13.0498 20.3453 13.3971C20.3453 18.55 16.1531 22.7422 11.0001 22.7422C5.84721 22.7422 1.65499 18.55 1.65499 13.3971C1.65499 8.24419 5.84721 4.05197 11.0001 4.05197H12.0912L10.5311 5.7983C10.2997 6.05728 10.3221 6.45487 10.5811 6.6863C10.8401 6.91772 11.2377 6.89522 11.4691 6.63623L13.6992 4.13991C14.0643 3.73125 14.0643 3.11494 13.6992 2.70628L11.4691 0.209953C11.3449 0.0708275 11.1728 4.76837e-05 10.9999 4.76837e-05C10.8508 4.76837e-05 10.7011 0.0528278 10.5811 0.159891C10.3221 0.391314 10.2997 0.788908 10.5311 1.04789L12.0912 2.79422H11.0001C5.15365 2.79422 0.397245 7.55067 0.397245 13.3971Z" fill="white"/>
</svg>
