<svg width="24" height="27" viewBox="0 0 24 27" fill="none" xmlns="http://www.w3.org/2000/svg">
<path d="M19.5 5.83333V18.8667C19.5 21.0136 19.5 22.0869 19.0913 22.907C18.7318 23.6283 18.1581 24.2147 17.4525 24.5822C16.6502 25 15.6002 25 13.5 25H10.5C8.3998 25 7.3497 25 6.54754 24.5822C5.84193 24.2147 5.26825 23.6283 4.90873 22.907C4.5 22.0869 4.5 21.0136 4.5 18.8667V5.83333M2 5.83333H22M17 5.83333L16.6617 4.79587C16.3339 3.79049 16.1699 3.2878 15.8659 2.91614C15.5974 2.58794 15.2526 2.33391 14.8631 2.17733C14.422 2 13.9037 2 12.867 2H11.133C10.0963 2 9.578 2 9.13689 2.17733C8.7474 2.33391 8.4026 2.58794 8.13411 2.91614C7.83006 3.2878 7.66615 3.79049 7.3383 4.79587L7 5.83333" stroke="white" stroke-width="3" stroke-linecap="round" stroke-linejoin="round"/>
</svg>
